<?xml version="1.0" encoding="UTF-8"?>
<!-- Generated by jsxcad -->
<!DOCTYPE svg PUBLIC "-//W3C//DTD SVG 1.1 Tiny//EN" "http://www.w3.org/Graphics/SVG/1.1/DTD/svg11-tiny.dtd">
<svg viewBox="-250 -250 500 500" width="500" height="500" xmlns="http://www.w3.org/2000/svg"><path d="M-186.59128830715997,-87.66829956006404L-186.58976977423748,-87.66811744813383L-186.58964061112894,-87.66878025846411z" style="fill:rgb(83,212,212)"/><path d="M-243.27776332877525,8.44686338107863L-101.17781709320295,196.81471563364974L-90.2328180831922,62.90040032356251z" style="fill:rgb(247,158,158)"/><path d="M-186.58976977423748,-87.66811744813383L134.6364965632072,-181.64241714986753L-186.58964061112894,-87.66878025846411z" style="fill:rgb(83,212,212)"/><path d="M-90.2328180831922,62.90040032356251L-211.85057645500083,-127.13819683717703L-243.27776332877525,8.44686338107863z" style="fill:rgb(247,158,158)"/><path d="M-243.27776332877525,8.44686338107863L-103.14055699167204,197.23494511554952L-101.17781709320295,196.81471563364974z" style="fill:rgb(127,37,217)"/><path d="M-186.58976977423748,-87.66811744813383L-186.59128830715997,-87.66829956006404L-213.20318379117603,48.313767815228914z" style="fill:rgb(84,212,212)"/><path d="M151.91068782252287,-73.66134499733951L191.98035477957282,-6.908720827752827L135.2479721351496,-179.7791751702158zM191.98035477957282,-6.908720827752827L156.35624171312443,-45.349472823805385L217.14592194158868,128.65947492814058z" style="fill:rgb(247,158,158)"/><path d="M-211.85057645500083,-127.13819683717703L-213.88221374769276,-126.51902019036947L-245.5914824568302,9.075347520815972zM-186.58976977423748,-87.66811744813383L-213.20318379117603,48.313767815228914L-213.20131346214305,48.313281735205635zM-186.58976977423748,-87.66811744813383L155.68640289848753,-47.266868328817445L134.6364965632072,-181.64241714986753z" style="fill:rgb(83,212,212)"/><path d="M-243.27776332877525,8.44686338107863L-245.5914824568302,9.075347520815972L-103.14055699167204,197.23494511554952zM217.14592194158868,128.65947492814058L153.66635886159855,-44.653850449289735L214.8537617556316,129.15024399828914z" style="fill:rgb(127,37,217)"/><path d="M151.9102844883404,-73.66201715267745L135.2479721351496,-179.7791751702158L135.24746403380536,-179.78072560210862zM134.6359873035658,-181.6439728416533L151.42495315808785,-74.47053558123525L134.6364965632072,-181.64241714986753zM191.98035477957282,-6.908720827752827L151.91068782252287,-73.66134499733951L156.35624171312443,-45.349472823805385z" style="fill:rgb(247,158,158)"/><path d="M155.68640289848753,-47.266868328817445L-186.58976977423748,-87.66811744813383L-213.20131346214305,48.313281735205635zM153.5061821593393,-45.690493980525275L135.24746403380536,-179.78072560210862L132.93220058378023,-179.1045400205075zM-211.85057645500083,-127.13819683717703L-245.5914824568302,9.075347520815972L-243.27776332877525,8.44686338107863z" style="fill:rgb(83,212,212)"/><path d="M135.24746403380536,-179.78072560210862L134.6364965632072,-181.64241714986753L155.68640289848753,-47.266868328817445z" style="fill:rgb(247,158,158)"/><path d="M-212.0003656340219,49.90822213242015L-211.99849772367185,49.90773760665634L-213.20131346214305,48.313281735205635z" style="fill:rgb(127,37,217)"/><path d="M119.39330552043519,-228.09028515550494L151.42454950508483,-74.4712057246797L134.6359873035658,-181.6439728416533z" style="fill:rgb(247,158,158)"/><path d="M-212.0003656340219,49.90822213242015L-213.20131346214305,48.313281735205635L-213.20318379117603,48.313767815228914z" style="fill:rgb(127,37,217)"/><path d="M151.9102844883404,-73.66201715267745L151.91068782252287,-73.66134499733951L135.2479721351496,-179.7791751702158zM134.6359873035658,-181.6439728416533L151.42454950508483,-74.4712057246797L151.42495315808785,-74.47053558123525z" style="fill:rgb(247,158,158)"/><path d="M-211.99849772367185,49.90773760665634L155.68640289848753,-47.266868328817445L-213.20131346214305,48.313281735205635zM217.14592194158868,128.65947492814058L156.35624171312443,-45.349472823805385L153.66635886159855,-44.653850449289735z" style="fill:rgb(127,37,217)"/><path d="M119.39330552043519,-228.09028515550494L116.99563840397317,-227.35956376252068L136.0826700541362,-94.60069859911438zM153.5061821593393,-45.690493980525275L156.35568575651064,-45.35106497542378L135.24746403380536,-179.78072560210862z" style="fill:rgb(83,212,212)"/><path d="M135.24746403380536,-179.78072560210862L155.68640289848753,-47.266868328817445L156.35568575651064,-45.35106497542378z" style="fill:rgb(247,158,158)"/><path d="M-211.99849772367185,49.90773760665634L156.35568575651064,-45.35106497542378L155.68640289848753,-47.266868328817445z" style="fill:rgb(127,37,217)"/><path d="M119.39330552043519,-228.09028515550494L138.88454732951834,-95.36178460989339L151.42454950508483,-74.4712057246797zM156.35568575651064,-45.35106497542378L151.91068782252287,-73.66134499733951L151.9102844883404,-73.66201715267745zM155.68584497591092,-47.26846962199288L151.42495315808785,-74.47053558123525L151.42454950508483,-74.4712057246797zM156.35568575651064,-45.35106497542378L156.35624171312443,-45.349472823805385L151.91068782252287,-73.66134499733951zM155.68584497591092,-47.26846962199288L155.68640289848753,-47.266868328817445L151.42495315808785,-74.47053558123525z" style="fill:rgb(247,158,158)"/><path d="M119.39330552043519,-228.09028515550494L136.0826700541362,-94.60069859911438L138.88454732951834,-95.36178460989339zM153.6657993142444,-44.655444065781246L156.35568575651064,-45.35106497542378L153.5061821593393,-45.690493980525275z" style="fill:rgb(83,212,212)"/><path d="M153.6657993142444,-44.655444065781246L153.66635886159855,-44.653850449289735L156.35624171312443,-45.349472823805385zM153.6657993142444,-44.655444065781246L156.35624171312443,-45.349472823805385L156.35568575651064,-45.35106497542378zM152.99164365502872,-46.57038887498497L152.99220517964565,-46.56879314510793L155.68640289848753,-47.266868328817445zM152.99164365502872,-46.57038887498497L155.68640289848753,-47.266868328817445L155.68584497591092,-47.26846962199288z" style="fill:rgb(127,37,217)"/><path d="M151.42454950508483,-74.4712057246797L138.88454732951834,-95.36178460989339L155.68584497591092,-47.26846962199288z" style="fill:rgb(247,158,158)"/><path d="M155.68584497591092,-47.26846962199288L136.0826700541362,-94.60069859911438L152.99164365502872,-46.57038887498497zM155.68584497591092,-47.26846962199288L138.88454732951834,-95.36178460989339L136.0826700541362,-94.60069859911438z" style="fill:rgb(127,37,217)"/></svg>
